<svg width="24" height="24" fill="none" xmlns="http://www.w3.org/2000/svg"><path opacity=".3" fill-rule="evenodd" clip-rule="evenodd" d="M12 17a8 8 0 1 0 0-16 8 8 0 0 0 0 16Z" fill="#99EFD0"/><path opacity=".3" fill-rule="evenodd" clip-rule="evenodd" d="m6.538 9 4.03 10.362 1.408-.547 1.398.552L17.47 9H6.538Zm2.924 2h5.068l-2.554 6.465L9.462 11Z" fill="#99EFD0"/><path opacity=".3" d="M10 22h4a2 2 0 1 1-4 0Z" fill="#99EFD0"/><path fill-rule="evenodd" clip-rule="evenodd" d="M8 17a1 1 0 0 1 1-1h6a1 1 0 1 1 0 2 1 1 0 1 1 0 2 1 1 0 1 1 0 2H9a1 1 0 1 1 0-2 1 1 0 1 1 0-2 1 1 0 0 1-1-1Z" fill="#99EFD0"/></svg>