<svg width="24" height="24" fill="none" xmlns="http://www.w3.org/2000/svg"><path opacity=".3" fill-rule="evenodd" clip-rule="evenodd" d="M7.256 18.93 5.98 20.467A10.977 10.977 0 0 1 2 12a10.98 10.98 0 0 1 3.969-8.46l1.279 1.538A8.978 8.978 0 0 0 4 12a8.978 8.978 0 0 0 3.256 6.93Zm9.488 0 1.277 1.538A10.977 10.977 0 0 0 22 12a10.98 10.98 0 0 0-3.969-8.46l-1.279 1.538A8.977 8.977 0 0 1 20 12a8.978 8.978 0 0 1-3.256 6.93Zm-2.566-3.07 1.273 1.543A6.986 6.986 0 0 0 18 12c0-2.11-.94-4.07-2.534-5.39L14.19 8.15A4.987 4.987 0 0 1 16 12a4.987 4.987 0 0 1-1.822 3.86ZM8.55 17.403l1.273-1.543A4.987 4.987 0 0 1 8 12c0-1.509.671-2.906 1.81-3.85L8.535 6.61A6.986 6.986 0 0 0 6 12c0 2.117.947 4.082 2.55 5.403Z" fill="#99EFD0"/><path fill-rule="evenodd" clip-rule="evenodd" d="M12 14a2 2 0 1 0 0-4 2 2 0 0 0 0 4Z" fill="#99EFD0"/></svg>