<svg width="24" height="24" fill="none" xmlns="http://www.w3.org/2000/svg"><path opacity=".3" fill-rule="evenodd" clip-rule="evenodd" d="M14 11.472a5.98 5.98 0 0 0 3 1.445V20.5a1.5 1.5 0 0 1-3 0v-9.028Zm-7 1.445a5.98 5.98 0 0 0 3-1.445V20.5a1.5 1.5 0 0 1-3 0v-7.583Z" fill="#99EFD0"/><path fill-rule="evenodd" clip-rule="evenodd" d="M18 12a5 5 0 1 0 0-10 5 5 0 0 0 0 10Zm-4-4.75a.75.75 0 0 1 .75-.75h.5a.75.75 0 0 1 0 1.5h-.5a.75.75 0 0 1-.75-.75ZM21 5a1 1 0 0 0-1 1v2a1 1 0 1 0 2 0V6a1 1 0 0 0-1-1ZM6 12A5 5 0 1 0 6 2a5 5 0 0 0 0 10Zm2-4.75a.75.75 0 0 1 .75-.75h.5a.75.75 0 0 1 0 1.5h-.5A.75.75 0 0 1 8 7.25ZM3 5a1 1 0 0 0-1 1v2a1 1 0 0 0 2 0V6a1 1 0 0 0-1-1Z" fill="#99EFD0"/></svg>