<svg width="24" height="24" fill="none" xmlns="http://www.w3.org/2000/svg"><path fill-rule="evenodd" clip-rule="evenodd" d="M15 19.523c0 .742.962 1.033 1.374.416l5.849-8.773A.75.75 0 0 0 21.599 10H17V4.477c0-.742-.962-1.033-1.374-.416l-5.849 8.773A.75.75 0 0 0 10.401 14H15v5.523Z" fill="#99EFD0"/><path opacity=".3" fill-rule="evenodd" clip-rule="evenodd" d="M3 6.5A1.5 1.5 0 0 1 4.5 5h5a1.5 1.5 0 0 1 0 3h-5A1.5 1.5 0 0 1 3 6.5Zm0 12A1.5 1.5 0 0 1 4.5 17h5a1.5 1.5 0 0 1 0 3h-5A1.5 1.5 0 0 1 3 18.5ZM2.5 11a1.5 1.5 0 0 0 0 3h4a1.5 1.5 0 0 0 0-3h-4Z" fill="#99EFD0"/></svg>