<svg width="40" height="40" fill="none" xmlns="http://www.w3.org/2000/svg"><path opacity=".1" fill-rule="evenodd" clip-rule="evenodd" d="M20 40c11.046 0 20-8.954 20-20S31.046 0 20 0 0 8.954 0 20s8.954 20 20 20Z" fill="#F6F6F6"/><path d="M26.393 19.302h-5.766c0 .6 0 1.8-.004 2.399h3.341c-.128.6-.582 1.44-1.223 1.862 0 0-.001.004-.003.003-.852.563-1.978.69-2.813.523a3.71 3.71 0 0 1-2.768-2.417c.003-.002.005-.018.006-.02-.263-.748-.263-1.75 0-2.35.34-1.102 1.407-2.107 2.719-2.383 1.055-.223 2.245.019 3.12.838.117-.114 1.612-1.574 1.724-1.692-2.991-2.709-7.78-1.756-9.572 1.742l-.004.006a5.86 5.86 0 0 0 .006 5.379l-.006.005a6.108 6.108 0 0 0 3.888 3.099c1.807.473 4.106.15 5.646-1.244l.002.002c1.305-1.175 2.117-3.177 1.707-5.752Z" fill="#fff"/></svg>